{
    "asset" : {
        "generator" : "Khronos glTF Blender I/O v1.6.16",
        "version" : "2.0"
    },
    "scene" : 0,
    "scenes" : [
        {
            "name" : "Scene",
            "nodes" : [
                0
            ]
        }
    ],
    "nodes" : [
        {
            "mesh" : 0,
            "name" : "Laser_Rifle",
            "rotation" : [
                0.01436595432460308,
                0.9856086373329163,
                -0.1154790073633194,
                -0.12261271476745605
            ],
            "scale" : [
                0.009999999776482582,
                0.009999999776482582,
                0.009999999776482582
            ],
            "translation" : [
                0.12861762940883636,
                -0.48083579540252686,
                -0.8248153328895569
            ]
        }
    ],
    "materials" : [
        {
            "doubleSided" : true,
            "name" : "Laser_Rifled",
            "pbrMetallicRoughness" : {
                "baseColorTexture" : {
                    "index" : 0
                },
                "metallicFactor" : 0
            }
        }
    ],
    "meshes" : [
        {
            "name" : "Mesh",
            "primitives" : [
                {
                    "attributes" : {
                        "POSITION" : 0,
                        "NORMAL" : 1,
                        "TEXCOORD_0" : 2,
                        "COLOR_0" : 3
                    },
                    "indices" : 4,
                    "material" : 0
                }
            ]
        }
    ],
    "textures" : [
        {
            "sampler" : 0,
            "source" : 0
        }
    ],
    "images" : [
        {
            "bufferView" : 5,
            "mimeType" : "image/png",
            "name" : "Map #8"
        }
    ],
    "accessors" : [
        {
            "bufferView" : 0,
            "componentType" : 5126,
            "count" : 2532,
            "max" : [
                6.2494001388549805,
                36.802791595458984,
                5.442399024963379
            ],
            "min" : [
                -2.038944959640503,
                9.987602233886719,
                -66.65139770507812
            ],
            "type" : "VEC3"
        },
        {
            "bufferView" : 1,
            "componentType" : 5126,
            "count" : 2532,
            "type" : "VEC3"
        },
        {
            "bufferView" : 2,
            "componentType" : 5126,
            "count" : 2532,
            "type" : "VEC2"
        },
        {
            "bufferView" : 3,
            "componentType" : 5123,
            "count" : 2532,
            "normalized" : true,
            "type" : "VEC4"
        },
        {
            "bufferView" : 4,
            "componentType" : 5123,
            "count" : 5796,
            "type" : "SCALAR"
        }
    ],
    "bufferViews" : [
        {
            "buffer" : 0,
            "byteLength" : 30384,
            "byteOffset" : 0
        },
        {
            "buffer" : 0,
            "byteLength" : 30384,
            "byteOffset" : 30384
        },
        {
            "buffer" : 0,
            "byteLength" : 20256,
            "byteOffset" : 60768
        },
        {
            "buffer" : 0,
            "byteLength" : 20256,
            "byteOffset" : 81024
        },
        {
            "buffer" : 0,
            "byteLength" : 11592,
            "byteOffset" : 101280
        },
        {
            "buffer" : 0,
            "byteLength" : 509320,
            "byteOffset" : 112872
        }
    ],
    "samplers" : [
        {
            "magFilter" : 9729,
            "minFilter" : 9987
        }
    ],
    "buffers" : [
        {
            "byteLength" : 622192,
            "uri" : "data:application/octet-stream;base64,"
        }
    ]
}
